<?xml version="1.0" encoding="UTF-8" standalone="no"?>
<!DOCTYPE svg PUBLIC "-//W3C//DTD SVG 1.1//EN" "http://www.w3.org/Graphics/SVG/1.1/DTD/svg11.dtd">
<svg
  version="1.1"
  id="Citience Logo"
  xmlns="http://www.w3.org/2000/svg"
  xmlns:xlink="http://www.w3.org/1999/xlink"
  preserveAspectRatio="xMidYMid meet"
  viewBox="0 0 640 640"
  width="640"
  height="640">
  <defs>
    <path
      id="d7QsJW34C"
      d="M283.92 151.22C284.57 153.85 286.94 155.7 289.66 155.7C295.73 155.7 344.27 155.7 350.34 155.7C353.06 155.7 355.43 153.85 356.08 151.22C356.41 149.9 359.02 139.38 359.35 138.06C381.18 124.49 394.63 100.42 394.63 74.63C394.63 33.48 361.15 0 320 0C278.85 0 245.37 33.48 245.37 74.63C245.37 100.42 258.82 124.49 280.65 138.06C281.3 140.69 283.59 149.9 283.92 151.22ZM382.81 74.63C382.81 97.06 370.72 117.94 351.26 129.13C349.86 129.93 348.86 131.26 348.47 132.82C348.28 133.56 347.37 137.24 345.72 143.88L294.28 143.88C292.63 137.24 291.72 133.56 291.53 132.82C291.15 131.26 290.14 129.93 288.74 129.13C269.28 117.94 257.19 97.06 257.19 74.63C257.19 40 285.37 11.83 320 11.83C354.63 11.83 382.81 40 382.81 74.63Z" />
    <path
      id="e8OITUxf2"
      d="M289.66 161.01C286.39 161.01 283.74 163.65 283.74 166.92C283.74 170.18 286.39 172.83 289.66 172.83C295.73 172.83 344.27 172.83 350.34 172.83C353.61 172.83 356.26 170.18 356.26 166.92C356.26 163.65 353.61 161.01 350.34 161.01C338.21 161.01 295.73 161.01 289.66 161.01Z" />
    <path
      id="ayTVVYjP9"
      d="M308.17 132.05C308.64 132.05 309.12 132 309.6 131.88C312.77 131.09 314.7 127.88 313.91 124.71C313.56 123.31 311.82 116.29 308.68 103.67L331.32 103.67C328.18 116.29 326.44 123.31 326.09 124.71C325.3 127.88 327.23 131.09 330.4 131.88C330.88 131.99 331.36 132.05 331.83 132.05C334.48 132.05 336.9 130.25 337.56 127.56C338.27 124.73 343.91 102.02 344.62 99.18C344.62 99.15 344.63 99.12 344.64 99.09C344.66 98.98 344.68 98.86 344.7 98.75C344.72 98.66 344.73 98.57 344.74 98.48C344.75 98.38 344.76 98.29 344.77 98.2C344.78 98.08 344.78 97.97 344.79 97.86C344.79 97.82 344.79 97.79 344.79 97.76C344.79 97.71 344.79 97.67 344.78 97.62C344.78 97.5 344.78 97.38 344.77 97.26C344.76 97.18 344.75 97.1 344.74 97.02C344.73 96.91 344.71 96.8 344.69 96.69C344.68 96.6 344.66 96.51 344.63 96.42C344.61 96.33 344.59 96.24 344.56 96.15C344.54 96.05 344.5 95.95 344.47 95.85C344.44 95.77 344.42 95.69 344.39 95.62C344.35 95.51 344.3 95.41 344.26 95.31C344.22 95.24 344.19 95.17 344.16 95.1C344.1 95 344.05 94.9 344 94.81C343.96 94.74 343.91 94.67 343.87 94.6C343.81 94.51 343.76 94.42 343.7 94.34C343.64 94.26 343.59 94.19 343.53 94.12C343.48 94.05 343.42 93.97 343.35 93.9C343.29 93.83 343.22 93.75 343.15 93.68C343.09 93.62 343.03 93.56 342.97 93.5C342.9 93.42 342.82 93.35 342.74 93.28C342.67 93.23 342.61 93.18 342.55 93.13C342.46 93.06 342.38 93 342.29 92.93C342.22 92.88 342.15 92.84 342.07 92.79C341.99 92.73 341.9 92.68 341.82 92.63C341.73 92.58 341.65 92.54 341.56 92.49C341.48 92.45 341.4 92.41 341.32 92.38C341.22 92.33 341.11 92.29 341 92.25C340.93 92.22 340.86 92.19 340.79 92.17C340.67 92.13 340.55 92.09 340.43 92.06C340.39 92.05 340.35 92.03 340.3 92.02C340.27 92.01 340.24 92.01 340.21 92C340.1 91.98 339.99 91.96 339.87 91.94C339.78 91.92 339.68 91.9 339.59 91.89C339.5 91.88 339.42 91.87 339.33 91.87C339.21 91.86 339.08 91.85 338.96 91.85C338.93 91.85 338.91 91.85 338.88 91.85C335.1 91.85 304.89 91.85 301.12 91.85C299.3 91.85 297.58 92.68 296.46 94.12C295.34 95.55 294.94 97.42 295.38 99.18C295.85 101.08 298.2 110.54 302.44 127.56C304.49 130.56 306.4 132.05 308.17 132.05Z" />
    <path
      id="fq0sPKY1q"
      d="M158.15 125.92C126.35 125.92 100.57 151.7 100.57 183.5C100.57 215.3 126.35 241.08 158.15 241.08C189.95 241.08 215.72 215.3 215.72 183.5C215.72 151.7 189.95 125.92 158.15 125.92Z" />
    <path
      id="c27JX5ddE7"
      d="M539.43 183.5C539.43 215.3 513.66 241.08 481.86 241.08C450.06 241.08 424.28 215.3 424.28 183.5C424.28 151.7 450.06 125.92 481.86 125.92C513.66 125.92 539.43 151.7 539.43 183.5Z" />
    <path
      id="cvHlyk0WR"
      d="M481.86 252.17C465.15 252.17 449.99 245.63 438.65 235.05C414.1 241.53 394.57 260.37 387.07 284.46C365.86 280.55 343.33 278.43 320 278.43C296.67 278.43 274.14 280.55 252.93 284.46C245.43 260.37 225.9 241.53 201.36 235.05C190.02 245.63 174.85 252.16 158.15 252.16C141.44 252.16 126.28 245.63 114.94 235.05C83.37 243.39 60 272.11 60 306.25C60 310.24 60 330.16 60 366.02L60.15 366.94C62.62 367.71 64 368.14 64.27 368.23C77.12 372.24 89.35 375.3 101.05 377.69C95.66 389.25 92.71 401.41 92.71 413.97C92.71 468.24 146.49 515.13 223.9 536.76C221.04 544.59 219.45 553.03 219.45 561.85C219.45 565.84 219.45 585.76 219.45 621.61L219.61 622.55C222.08 623.32 223.45 623.75 223.72 623.84C262.51 635.95 296.22 640 323.96 640C378.15 640 409.55 624.55 411.48 623.56C411.74 623.43 413.03 622.78 415.34 621.61L415.75 621.61C415.75 585.76 415.75 565.84 415.75 561.85C415.75 553.47 414.33 545.43 411.74 537.93C491.49 516.87 547.29 469.24 547.29 413.97C547.29 402 544.64 390.4 539.74 379.34C561.99 374.74 574.53 368.58 575.73 367.96C575.99 367.83 577.28 367.18 579.59 366.01L580 366.02C580 330.16 580 310.24 580 306.25C580.01 272.11 556.64 243.39 525.07 235.05C513.73 245.64 498.56 252.17 481.86 252.17ZM404.98 523.68C395.18 507.63 379.45 495.57 360.82 490.66C349.48 501.24 334.3 507.76 317.61 507.76C300.91 507.76 285.74 501.24 274.4 490.66C256.18 495.47 240.72 507.1 230.88 522.62C158.64 503.53 108.43 462.01 108.43 413.97C108.43 402.38 111.4 391.18 116.85 380.57C134.24 383.28 150.18 384.39 164.51 384.39C218.69 384.39 250.1 368.94 252.03 367.96C252.29 367.83 253.57 367.18 255.88 366.01L256.3 366.02C256.3 330.16 256.3 310.23 256.3 306.25C256.3 304.06 256.19 301.89 256.01 299.75C276.21 296.11 297.7 294.13 320 294.13C342.31 294.13 363.81 296.11 384.01 299.75C383.82 301.9 383.71 304.06 383.71 306.25C383.71 310.24 383.71 330.16 383.71 366.02L383.87 366.95C386.34 367.72 387.72 368.15 387.99 368.24C426.77 380.35 460.48 384.39 488.22 384.39C501.53 384.39 513.44 383.47 523.9 382.04C528.87 392.21 531.58 402.91 531.58 413.97C531.58 462.93 479.44 505.11 404.98 523.68Z" />
    <path
      id="biA6FfWOU"
      d="M297.24 177.59C294.79 177.59 292.8 180.23 292.8 183.5C292.8 186.76 294.79 189.41 297.24 189.41C301.79 189.41 338.21 189.41 342.76 189.41C345.21 189.41 347.2 186.76 347.2 183.5C347.2 180.23 345.21 177.59 342.76 177.59C333.66 177.59 301.79 177.59 297.24 177.59Z" />
    <path
      id="fbQK64LRa"
      d="M317.61 381.53C285.81 381.53 260.03 407.3 260.03 439.1C260.03 470.9 285.81 496.68 317.61 496.68C349.4 496.68 375.18 470.9 375.18 439.1C375.18 407.3 349.4 381.53 317.61 381.53Z" />
  </defs>
  <g>
    <use xlink:href="#d7QsJW34C" opacity="1" fill="#9e8e01" fill-opacity="1" />
    <use xlink:href="#e8OITUxf2" opacity="1" fill="#9e8e01" fill-opacity="1" />
    <use xlink:href="#ayTVVYjP9" opacity="1" fill="#9e8e01" fill-opacity="1" />
    <use xlink:href="#fq0sPKY1q" opacity="1" fill="#508104" fill-opacity="1" />
    <use xlink:href="#c27JX5ddE7" opacity="1" fill="#508104" fill-opacity="1" />
    <use xlink:href="#cvHlyk0WR" opacity="1" fill="#508104" fill-opacity="1" />
    <use xlink:href="#biA6FfWOU" opacity="1" fill="#9e8e01" fill-opacity="1" />
    <use xlink:href="#fbQK64LRa" opacity="1" fill="#508104" fill-opacity="1" />
  </g>
</svg>
